<?xml version="1.0" encoding="UTF-8"?>
<svg width="242px" height="28px" viewBox="0 0 242 28" version="1.1" xmlns="http://www.w3.org/2000/svg" xmlns:xlink="http://www.w3.org/1999/xlink">
    <title>编组 19</title>
    <g id="页面-1" stroke="none" stroke-width="1" fill="none" fill-rule="evenodd">
        <g id="首页备份-3" transform="translate(-10.000000, -13.000000)">
            <g id="编组-19" transform="translate(10.000000, 13.000000)">
                <path d="M49.356,23.562 C49.752,23.65 50.126,23.628 50.522,23.54 C50.874,23.54 50.984,23.408 50.852,23.21 C50.72,23.012 50.654,22.616 50.654,22.044 C50.742,18.04 50.808,15.312 50.852,13.882 L50.852,13.882 L50.852,13.552 C51.996,13.508 53.052,13.596 54.042,13.816 C54.306,13.992 54.46,13.816 54.504,13.31 C54.504,12.848 54.416,12.54 54.24,12.452 C54.042,12.364 53.91,12.21 53.822,11.946 C53.712,11.704 53.602,11.594 53.47,11.638 C53.294,11.726 52.81,11.814 51.974,11.902 C51.6,11.946 51.204,11.968 50.874,12.012 C50.874,10.868 50.852,9.504 50.852,7.898 C50.83,7.744 50.852,7.59 50.896,7.436 C51.226,7.326 51.6,7.194 51.974,7.062 C52.238,6.974 52.37,6.688 52.326,6.182 C52.26,5.72 52.084,5.456 51.798,5.456 C51.16,5.522 50.324,5.72 49.246,6.028 C48.146,6.38 46.87,6.6 45.462,6.688 C44.846,6.622 44.648,6.776 44.824,7.128 C44.978,7.502 45.088,7.854 45.176,8.25 C45.22,8.668 45.396,8.756 45.682,8.602 C46.386,8.338 46.914,8.272 47.31,8.426 C47.618,8.58 48.234,8.47 49.136,8.118 C49.136,8.096 49.158,8.074 49.246,8.052 C49.224,8.14 49.224,8.206 49.268,8.272 C49.29,8.668 49.334,9.988 49.378,12.276 L49.378,12.276 L49.3568148,12.276 L49.3568148,12.276 L48.877808,12.3684 C48.25336,12.4916 47.6796,12.6148 47.134,12.738 L47.134,12.738 L47.134,11.968 C47.046,10.758 47.068,10.076 47.2,9.9 C47.31,9.636 47.09,9.46 46.43,9.306 C45.77,9.174 45.506,9.328 45.638,9.746 C45.77,10.934 45.836,12.034 45.792,13.068 C45.242,13.222 44.736,13.332 44.318,13.464 C43.592,13.288 43.394,13.486 43.768,14.058 C44.12,14.63 44.384,14.85 44.582,14.718 C44.868,14.586 45.22,14.476 45.638,14.366 C45.484,15.488 45.154,16.478 44.67,17.38 C44.12,18.304 43.196,19.206 41.942,20.086 C41.612,20.394 41.722,20.526 42.272,20.482 C42.778,20.504 43.438,20.306 44.208,19.91 C44.912,19.558 45.22,19.228 45.132,18.942 C44.978,18.524 45.088,18.15 45.484,17.864 C45.814,17.556 46.188,16.94 46.562,16.038 C46.76,15.356 46.914,14.696 47.002,14.08 C47.684,13.948 48.476,13.816 49.378,13.706 C49.4,15.906 49.444,18.766 49.488,22.264 C49.51,22.77 49.444,23.122 49.268,23.298 C49.07,23.474 49.114,23.562 49.356,23.562 Z M38.796,17.226 C38.972,17.6 39.104,17.732 39.192,17.644 C39.28,17.556 39.5,17.468 39.896,17.402 C40.49,17.314 40.886,17.248 41.04,17.248 C41.48,17.314 41.766,17.314 41.832,17.27 C41.92,17.226 41.964,17.116 42.008,16.94 C42.492,15.114 42.866,14.08 43.13,13.86 C43.372,13.64 43.482,13.442 43.438,13.288 C43.042,12.804 42.272,12.496 41.15,12.408 C40.93,12.408 40.468,12.54 39.742,12.804 C39.412,12.914 39.148,13.002 38.95,13.068 C39.544,12.056 40.05,11.22 40.49,10.56 C40.886,9.922 41.304,9.35 41.81,8.822 C42.14,8.712 42.47,8.624 42.8,8.514 C43.196,8.426 43.416,8.206 43.416,7.854 C43.394,7.546 43.394,7.282 43.394,7.084 C43.372,6.886 42.954,6.908 42.14,7.15 C39.126,7.766 37.564,8.03 37.388,7.986 C37.168,7.92 37.212,8.272 37.498,9.042 C37.762,9.812 37.982,10.098 38.136,9.878 C38.29,9.702 38.708,9.548 39.39,9.372 C39.346,9.768 39.236,10.208 39.104,10.67 C38.862,11.418 37.96,12.76 36.442,14.74 C35.716,15.532 35.254,16.082 34.99,16.412 C34.704,16.764 35.188,16.72 36.376,16.302 C36.794,16.038 37.256,15.554 37.784,14.872 C37.938,15.642 38.268,16.434 38.796,17.226 Z M40.182,16.104 C39.742,16.28 39.5,16.346 39.5,16.302 C39.368,16.192 39.258,15.862 39.17,15.29 C39.06,14.762 39.06,14.388 39.236,14.212 C39.368,14.146 39.632,14.014 39.962,13.882 C40.182,13.838 40.402,13.75 40.622,13.662 C40.82,13.596 40.974,13.574 41.106,13.618 C41.15,13.728 41.172,14.058 41.128,14.608 C41.04,15.158 40.952,15.554 40.842,15.774 C40.798,15.862 40.578,15.972 40.182,16.104 Z M67.043,6.842 C67.461,6.886 67.747,6.798 67.923,6.534 C68.055,6.27 68.077,6.094 67.989,5.984 C67.813,5.83 67.593,5.61 67.351,5.39 C67.065,5.192 66.823,4.95 66.647,4.642 C66.471,4.356 66.317,4.158 66.185,4.092 C65.701,3.74 65.349,4.004 65.085,4.906 C64.975,5.368 65.107,5.94 65.459,6.6 C65.503,6.776 65.657,6.842 65.965,6.842 C66.251,6.82 66.603,6.82 67.043,6.842 Z M61.455,13.178 C62.093,13.31 63.039,13.046 64.249,12.342 C64.381,12.21 64.425,12.056 64.381,11.858 C64.293,11.682 64.271,11.44 64.315,11.154 C64.359,10.626 64.491,10.164 64.711,9.702 C64.821,9.394 65.041,9.086 65.305,8.8 C65.701,8.756 66.119,8.712 66.559,8.69 C66.867,9.328 67.351,10.164 67.945,11.242 C68.055,11.572 68.143,11.814 68.187,11.99 C68.209,12.166 68.341,12.254 68.539,12.232 C68.715,12.232 68.957,11.924 69.221,11.374 C69.419,10.868 69.507,10.56 69.463,10.472 C69.507,10.538 69.617,10.604 69.793,10.692 C70.959,11.176 71.861,11.44 72.499,11.484 C73.137,11.572 73.621,11.638 73.951,11.726 C74.237,11.858 74.325,11.616 74.193,11.066 C73.049,8.998 72.279,7.876 71.861,7.722 C71.377,7.502 70.761,7.392 70.035,7.37 C67.967,7.326 66.449,7.458 65.503,7.744 C64.535,8.008 63.787,8.228 63.215,8.404 C62.665,8.602 62.203,8.69 61.873,8.734 C61.675,8.734 61.631,8.888 61.763,9.24 C61.851,9.592 61.983,9.702 62.159,9.614 C62.665,9.372 63.193,9.174 63.765,9.042 C63.787,9.35 63.765,9.724 63.677,10.186 C63.479,10.78 63.237,11.264 62.929,11.638 C62.335,12.21 61.829,12.584 61.345,12.848 L61.2751147,12.8874438 C61.0207278,13.0405325 61.0691538,13.1373846 61.455,13.178 Z M71.267,10.054 C70.629,10.318 70.145,10.406 69.749,10.34 C69.463,10.296 69.331,10.296 69.375,10.34 C68.737,9.724 67.989,9.152 67.087,8.646 C67.395,8.602 67.725,8.558 68.077,8.514 C68.891,8.36 69.617,8.272 70.255,8.25 C70.915,8.206 71.421,8.36 71.773,8.69 C72.059,9.35 71.883,9.79 71.267,10.054 Z M59.805,12.452 C60.157,12.694 60.421,12.65 60.553,12.342 C60.707,11.506 60.883,10.802 61.037,10.186 C61.455,9.46 61.301,9.306 60.575,9.768 C60.443,9.812 60.289,9.9 60.135,10.032 C59.915,10.164 59.717,10.362 59.541,10.582 C59.321,10.846 59.145,11.044 58.969,11.198 C58.617,11.44 58.573,11.66 58.837,11.836 C59.101,12.012 59.409,12.232 59.805,12.452 Z M71.795,22.154 C73.709,22.198 74.941,22.11 75.557,21.934 C75.513,21.67 75.315,21.12 74.919,20.24 C74.237,18.106 73.621,16.698 73.049,16.016 C72.763,15.708 72.609,15.554 72.565,15.598 C72.521,15.642 72.543,15.752 72.631,15.95 C72.697,16.148 72.763,16.324 72.807,16.478 C73.269,18.15 73.335,19.228 72.983,19.734 C72.851,20.262 72.213,20.504 71.113,20.482 C69.969,20.482 69.243,20.416 68.891,20.306 C68.517,20.218 68.253,20.064 68.077,19.866 C67.659,19.382 67.637,18.568 68.033,17.446 C68.363,16.368 68.737,15.642 69.177,15.29 C69.551,15.004 69.727,14.762 69.727,14.63 C69.551,14.278 69.089,14.058 68.319,13.926 C67.659,13.794 67.175,13.794 66.823,13.926 C66.559,13.992 66.207,14.08 65.767,14.19 C65.921,13.662 66.053,13.31 66.185,13.178 C66.559,12.716 66.603,12.408 66.317,12.298 C65.965,12.188 65.657,12.034 65.371,11.858 C65.041,11.704 64.887,11.924 64.887,12.518 C64.733,13.288 64.601,13.948 64.425,14.542 C63.501,14.762 62.775,14.982 62.247,15.18 C61.609,15.422 61.103,15.532 60.773,15.532 C60.377,15.554 60.157,15.576 60.135,15.62 C60.025,15.73 60.069,15.884 60.223,16.082 C60.377,16.302 60.531,16.522 60.663,16.786 C60.751,17.05 60.949,17.072 61.279,16.874 C61.499,16.742 61.851,16.588 62.313,16.412 C62.753,16.28 63.149,16.148 63.545,16.06 C63.633,16.038 63.787,16.016 63.941,15.95 C63.743,16.412 63.567,16.852 63.391,17.204 C62.731,18.326 61.961,19.162 61.037,19.712 C59.849,20.394 58.859,20.966 58.045,21.494 C57.759,21.648 57.847,21.736 58.309,21.758 C58.947,21.846 59.607,21.78 60.289,21.56 C60.971,21.362 61.499,21.142 61.939,20.922 C62.335,20.702 62.511,20.46 62.423,20.152 C62.489,19.888 62.885,19.514 63.633,18.964 C64.315,18.458 64.887,17.402 65.327,15.862 C65.349,15.73 65.393,15.576 65.437,15.422 C65.437,15.422 65.481,15.4 65.525,15.4 C66.449,15.07 66.955,15.004 67.087,15.202 C67.131,15.246 67.175,15.4 67.175,15.664 C67.153,15.928 67.043,16.412 66.823,17.182 C66.581,17.952 66.625,18.766 66.933,19.558 C67.285,20.504 67.879,21.34 68.737,22.022 C68.825,22.066 69.859,22.11 71.795,22.154 Z M77.844,20.284 C78.24,21.032 78.526,21.34 78.79,21.208 C80.902,20.57 83.872,20.042 87.678,19.712 C90.956,19.426 93.816,19.602 96.214,20.24 C96.566,20.46 96.764,20.262 96.808,19.69 C96.808,19.118 96.742,18.788 96.566,18.656 C96.346,18.524 96.214,18.304 96.126,17.996 C95.994,17.732 95.862,17.6 95.73,17.644 C95.422,17.776 94.52,17.864 92.98,17.864 C91.726,17.864 90.45,17.93 89.174,18.062 C89.086,17.6 89.108,16.764 89.24,15.554 C89.46,15.466 89.746,15.334 90.142,15.158 C90.648,14.894 91.264,14.476 91.902,13.948 C92.518,13.42 93.134,12.98 93.684,12.628 C94.102,12.474 94.212,12.276 94.014,12.012 C93.794,11.748 93.508,11.44 93.2,11.044 C92.87,10.67 92.606,10.626 92.386,10.934 C91.286,12.21 90.274,13.31 89.328,14.278 C89.328,13.904 89.372,13.486 89.46,13.046 C89.79,9.482 90.054,7.568 90.23,7.304 C90.472,6.996 90.142,6.666 89.196,6.314 C88.228,5.984 87.876,6.204 88.14,6.974 C88.148,7.05 88.1530909,7.15509091 88.1550083,7.28966942 L88.1554711,7.51370248 C88.1501818,8.17036364 88.092,9.302 87.964,10.934 C87.744,13.178 87.612,14.96 87.568,16.28 C87.502,17.204 87.436,17.864 87.348,18.238 C86.732,18.326 86.182,18.392 85.676,18.458 C85.544,17.908 85.434,16.456 85.302,14.102 C85.148,11.594 85.39,10.142 85.984,9.724 C86.204,9.614 85.984,9.416 85.346,9.108 C84.664,8.8 84.202,8.69 84.026,8.756 C83.652,8.932 83.564,10.604 83.74,13.794 C82.772,14.102 82.024,14.344 81.452,14.586 C80.726,14.894 80.242,15.048 79.978,15.048 C79.736,15.114 79.758,15.29 80.066,15.62 C80.308,15.972 80.616,16.346 80.968,16.786 C81.276,17.248 81.54,17.226 81.716,16.764 C82.112,16.346 82.618,15.884 83.212,15.356 C83.388,15.18 83.586,15.004 83.806,14.806 C83.872,15.972 83.96,17.204 84.092,18.59 L84.092,18.59 L84.092,18.678 C82.046,18.964 80.22,19.272 78.57,19.602 C77.646,19.338 77.426,19.558 77.844,20.284 Z M98.721,16.126 C100.019,16.412 101.295,16.39 102.483,16.082 C103.187,16.016 103.561,15.708 103.649,15.18 C103.781,14.806 104.397,14.256 105.519,13.574 C106.355,13.046 107.279,12.32 108.269,11.396 C108.709,11.594 109.215,11.836 109.809,12.1 C111.173,12.694 111.899,13.398 112.031,14.212 C112.119,15.048 112.383,15.444 112.757,15.422 C114.737,15.664 116.585,15.664 118.301,15.444 C118.653,15.4 118.675,15.224 118.323,14.96 C117.817,14.52 116.607,14.014 114.715,13.398 C112.955,12.804 111.415,11.968 110.029,10.868 C109.765,10.692 109.545,10.516 109.325,10.34 C109.684333,9.97333333 110.002111,9.65066667 110.279148,9.372 L110.733991,8.91792 C111.053809,8.60170667 111.294733,8.37173333 111.459,8.228 C111.657,8.03 111.987,7.832 112.405,7.678 C112.823,7.502 112.603,7.106 111.789,6.512 C110.337,6.028 109.039,6.028 107.917,6.512 C108.093,6.314 108.269,6.116 108.489,5.94 C108.797,5.72 108.841,5.5 108.643,5.28 C108.379,5.082 108.049,4.862 107.719,4.598 C107.323,4.356 107.081,4.378 106.949,4.686 C105.343,7.348 103.847,9.614 102.461,11.55 C101.977,12.276 102.131,12.408 102.901,12.012 C103.231,11.814 103.759,11.418 104.441,10.802 C104.727,10.516 105.035,10.208 105.387,9.834 C105.431,9.856 105.519,9.878 105.651,9.922 C106.025,10.098 106.509,10.34 107.015,10.67 C107.059,10.714 107.125,10.758 107.213,10.802 C106.047,11.924 104.925,12.826 103.803,13.552 C102.857,14.19 102.043,14.586 101.383,14.762 C100.701,14.938 99.887,15.202 98.941,15.598 C98.369,15.928 98.303,16.082 98.721,16.126 Z M108.357,9.658 C107.697,9.262 107.037,8.866 106.399,8.536 C106.399,8.514 106.443,8.47 106.487,8.426 C106.575,8.294 106.663,8.118 106.795,7.942 C106.839,7.92 106.883,7.898 106.971,7.876 C108.313,7.128 109.259,6.952 109.765,7.37 C109.897,7.766 109.435,8.514 108.357,9.658 Z M109.611,23.276 C109.743,23.408 109.941,23.32 110.205,22.946 C110.447,22.572 110.689,22.132 110.953,21.604 C111.349,20.834 111.745,19.888 112.185,18.788 C112.559,17.688 112.867,17.028 113.043,16.852 C113.417,16.632 113.351,16.324 112.845,15.95 C112.317,15.554 111.789,15.246 111.283,15.026 C110.667,14.872 109.699,14.938 108.379,15.202 C108.577,14.652 108.731,14.278 108.863,14.168 C108.951,14.036 108.687,13.882 108.071,13.706 C107.433,13.552 107.103,13.596 107.103,13.86 C107.059,14.454 106.971,15.026 106.817,15.576 C104.507,16.17 103.319,16.456 103.231,16.456 C102.747,16.456 102.593,16.654 102.769,17.05 C102.923,17.468 103.055,17.776 103.143,17.974 C103.209,18.216 103.363,18.238 103.583,18.062 C103.759,17.93 104.353,17.666 105.387,17.27 C105.673,17.16 105.959,17.028 106.267,16.918 C105.893,17.644 105.387,18.37 104.793,19.074 C104.023,20.02 102.835,21.054 101.251,22.198 C100.899,22.528 100.921,22.66 101.361,22.616 C102.285,22.572 102.945,22.44 103.319,22.22 C103.715,22.022 104.353,21.626 105.255,21.01 C105.431,20.878 105.519,20.636 105.475,20.328 C105.409,19.998 105.761,19.448 106.531,18.656 C107.125,17.996 107.631,17.226 107.961,16.368 C109.479,15.994 110.359,16.126 110.645,16.852 C110.667,17.578 110.491,18.392 110.095,19.338 C109.655,20.284 109.369,20.79 109.237,20.856 C108.555,21.12 107.697,20.9 106.619,20.262 C106.289,20.13 106.267,20.24 106.531,20.592 C107.609,21.736 108.379,22.418 108.797,22.594 C109.215,22.902 109.501,23.122 109.611,23.276 Z M122.26,16.478 C122.018,16.698 122.128,16.764 122.59,16.698 C123.074,16.698 123.558,16.544 124.086,16.258 C124.548,15.994 124.944,15.73 125.23,15.51 C125.494,15.29 125.582,15.07 125.494,14.828 C125.494,14.652 125.758,14.3 126.22,13.816 C126.418,13.574 126.594,13.244 126.77,12.804 C127.21,13.134 127.782,13.508 128.42,13.97 C128.662,14.212 128.86,14.388 128.97,14.52 C129.08,14.674 129.234,14.674 129.41,14.542 C129.542,14.454 129.608,14.102 129.608,13.486 C129.564,12.892 129.498,12.562 129.366,12.518 C128.618,12.298 127.804,12.122 126.946,12.012 C126.946,11.924 126.968,11.792 127.012,11.638 C127.65,11.462 128.288,11.242 128.926,10.978 C129.3,10.912 129.476,10.648 129.432,10.23 C129.388,9.79 129.234,9.636 128.97,9.746 C128.288,9.878 127.672,9.988 127.144,10.098 C127.166,9.658 127.21,9.394 127.298,9.262 C127.364,9.086 127.43,8.954 127.474,8.844 C128.2,8.602 128.838,8.316 129.344,8.008 C129.52,7.92 129.564,7.656 129.52,7.216 C129.432,6.798 129.3,6.578 129.08,6.622 C128.134,6.842 127.364,7.084 126.77,7.326 C126.374,7.458 126.044,7.546 125.78,7.568 C125.846,7.392 125.934,7.194 126.066,7.018 C126.44,6.204 126.858,5.522 127.232,4.95 C127.496,4.73 127.518,4.532 127.298,4.4 C127.056,4.268 126.792,4.114 126.44,3.96 C126.088,3.784 125.868,3.85 125.824,4.114 C124.966,6.292 124.174,8.162 123.382,9.746 C123.074,10.406 123.228,10.516 123.822,10.076 C124.064,9.9 124.394,9.548 124.834,9.02 C124.922,8.888 125.054,8.712 125.186,8.558 C125.406,8.932 125.67,9.174 125.978,9.24 C125.934,9.658 125.912,10.032 125.912,10.384 C124.944,10.626 124.24,10.824 123.756,11 C122.81,11.352 121.93,11.55 121.072,11.682 C120.72,11.726 120.654,12.078 120.874,12.76 C121.05,13.442 121.292,13.662 121.578,13.398 C122.194,12.87 123.25,12.452 124.746,12.188 C125.032,12.144 125.318,12.078 125.626,11.99 C125.56,12.166 125.516,12.342 125.472,12.496 C125.142,13.398 124.68,14.146 124.086,14.674 C123.36,15.356 122.722,15.972 122.26,16.478 Z M131.852,13.662 C131.852,13.816 131.962,13.838 132.138,13.75 C132.886,13.376 134.008,13.266 135.46,13.354 C135.724,13.464 135.878,13.376 135.922,13.134 C135.944,12.738 136.186,12.078 136.604,11.132 C137.022,10.186 137.418,9.614 137.814,9.438 C138.078,9.152 137.462,8.734 135.922,8.228 C135.042,8.03 133.942,8.118 132.644,8.492 C131.302,8.866 130.532,9.042 130.312,9.02 C129.938,9.02 129.85,9.196 130.026,9.526 C130.07,10.736 130.532,11.924 131.39,13.09 C131.632,13.332 131.808,13.53 131.852,13.662 Z M133.216,12.1 C132.732,12.188 132.512,12.188 132.468,12.122 C131.94,11.528 131.874,10.824 132.27,10.01 C132.424,9.834 132.82,9.68 133.458,9.548 C134.096,9.394 134.492,9.416 134.668,9.614 C135.152,10.406 134.976,11.132 134.118,11.858 C133.942,11.946 133.634,12.034 133.216,12.1 Z M131.038,22.594 C132.6,23.76 133.37,23.848 133.326,22.902 C133.37,22.682 133.414,21.626 133.414,19.69 C133.392,17.754 133.502,16.434 133.81,15.752 C133.898,15.4 133.37,15.158 132.16,15.048 C131.39,14.85 130.356,14.96 129.102,15.356 C128.42,15.532 127.672,15.664 126.814,15.774 C126.44,15.774 126.264,15.994 126.264,16.412 C126.066,18.172 126.11,19.888 126.462,21.604 C126.506,22.22 126.704,22.418 127.012,22.198 C127.254,22.022 127.606,21.868 127.98,21.736 C128.376,21.582 128.728,21.516 129.014,21.516 C129.212,21.472 129.872,21.824 131.038,22.594 Z M131.544,21.208 C131.412,21.34 131.126,21.384 130.686,21.34 C130.224,21.296 130.026,20.988 130.07,20.438 C130.07,19.888 129.872,19.734 129.454,19.976 C128.398,20.24 127.848,20.306 127.804,20.174 C127.716,20.042 127.672,19.866 127.628,19.668 C127.848,19.448 128.134,19.25 128.486,19.118 C129.036,18.876 129.608,18.7 130.114,18.546 C130.224,18.502 130.246,18.282 130.202,17.886 C130.114,17.512 129.96,17.358 129.784,17.424 C129.212,17.622 128.662,17.798 128.09,17.93 C127.892,18.018 127.672,18.018 127.496,17.908 C127.474,17.402 127.496,17.072 127.584,16.984 C127.804,16.808 128.288,16.61 129.014,16.434 C130.158,16.126 130.884,16.104 131.192,16.412 C131.478,16.632 131.632,17.446 131.676,18.854 C131.676,20.284 131.61,21.054 131.544,21.208 Z M142.543,12.518 C142.719,12.782 142.873,12.848 143.005,12.694 C143.247,12.562 144.061,12.188 145.425,11.572 C146.921,10.934 147.933,10.516 148.439,10.362 C148.483,10.362 148.549,10.34 148.637,10.318 C148.637,10.362 148.681,10.406 148.725,10.45 C148.989,10.934 149.143,11.242 149.231,11.374 C149.297,11.484 149.451,11.462 149.671,11.33 C149.891,11.176 150.023,10.868 150.067,10.45 C150.111,10.032 150.067,9.768 149.913,9.68 C148.901,8.932 148.153,8.426 147.691,8.14 C147.515,8.008 147.405,8.008 147.317,8.14 C147.207,8.294 147.207,8.382 147.295,8.426 C147.471,8.69 147.713,8.954 147.977,9.306 C147.185,9.548 146.415,9.724 145.645,9.9 C145.161,10.208 145.359,9.702 146.261,8.426 C147.141,7.128 147.691,6.402 147.955,6.226 C148.263,6.05 148.175,5.742 147.669,5.302 C147.141,4.884 146.811,4.884 146.679,5.302 C146.459,5.764 145.799,6.82 144.721,8.492 C143.599,10.208 142.719,11.154 142.037,11.352 C141.663,11.506 141.619,11.66 141.861,11.836 C142.081,12.056 142.323,12.276 142.543,12.518 Z M152.971,12.87 C153.455,12.914 154.159,12.848 155.061,12.716 C155.963,12.606 156.601,12.496 156.997,12.408 C157.195,12.386 157.305,12.342 157.349,12.254 C157.349,12.188 157.305,11.858 157.195,11.286 C156.997,10.538 156.623,9.614 156.073,8.558 C155.875,8.294 155.809,8.338 155.853,8.69 C155.919,9.9 155.853,10.626 155.677,10.912 C155.347,11.242 154.731,11.396 153.829,11.396 C152.905,11.396 152.289,11.22 151.981,10.89 C151.761,10.626 151.673,10.23 151.673,9.658 C154.027,8.492 155.369,7.876 155.655,7.876 C155.809,7.898 155.831,7.568 155.699,6.864 C155.567,6.182 155.413,5.984 155.193,6.27 C154.973,6.556 154.423,6.974 153.477,7.59 C152.663,8.074 152.091,8.316 151.761,8.316 C151.849,7.458 152.113,6.666 152.509,5.918 C152.839,5.544 152.685,5.258 152.047,5.082 C151.387,4.95 151.057,5.016 151.101,5.368 C151.167,5.808 151.079,6.666 150.837,7.964 C150.551,9.306 150.595,10.362 150.925,11.11 C151.585,12.276 152.003,12.848 152.223,12.826 C152.399,12.826 152.641,12.848 152.971,12.87 Z M148.681,22.462 C149.077,22.814 149.209,22 149.033,19.998 C148.857,17.996 148.901,15.906 149.187,13.684 C149.231,13.508 149.363,13.288 149.583,13.024 C149.759,12.782 149.363,12.54 148.373,12.342 C147.867,12.298 147.273,12.342 146.679,12.43 C146.151,12.518 145.711,12.628 145.359,12.804 C144.919,13.024 144.545,13.156 144.259,13.2 C143.907,13.266 143.753,13.618 143.797,14.278 C143.489,16.544 143.313,18.832 143.269,21.208 C143.181,21.604 143.357,21.802 143.775,21.78 C144.171,21.758 144.347,21.494 144.347,20.966 C144.369,20.064 144.435,19.25 144.501,18.502 C144.677,18.282 144.963,18.106 145.315,17.974 C145.865,17.798 146.371,17.622 146.899,17.49 C146.987,17.468 147.031,17.292 146.987,16.984 C146.943,16.698 146.833,16.544 146.657,16.588 C146.107,16.764 145.535,16.918 145.029,17.028 C144.875,17.072 144.743,17.072 144.655,17.028 C144.699,16.72 144.743,16.412 144.787,16.126 C144.963,15.95 145.227,15.796 145.557,15.708 C145.997,15.554 146.393,15.422 146.789,15.334 C146.899,15.312 146.943,15.136 146.899,14.85 C146.855,14.542 146.767,14.388 146.591,14.432 C146.173,14.564 145.733,14.652 145.315,14.74 C145.205,14.784 145.117,14.784 145.029,14.762 C145.183,14.08 145.359,13.684 145.579,13.574 C145.733,13.508 145.975,13.442 146.261,13.398 C146.877,13.31 147.207,13.398 147.295,13.662 C147.449,13.838 147.581,14.982 147.669,17.05 C147.735,19.14 147.669,20.218 147.493,20.306 C147.053,20.438 146.393,20.284 145.535,19.866 C145.139,19.734 145.117,19.844 145.447,20.196 C145.711,20.504 146.789,21.274 148.681,22.462 Z M153.235,22.022 C153.851,22.11 154.775,22.11 156.029,22 C157.217,21.956 158.075,21.868 158.625,21.78 C158.889,21.736 159.043,21.67 159.087,21.582 C159.109,21.516 159.043,21.076 158.911,20.306 C158.669,19.096 158.207,17.644 157.459,15.906 C157.261,15.576 157.173,15.62 157.217,16.038 C157.349,18.04 157.283,19.272 156.975,19.734 C156.535,20.174 155.743,20.372 154.577,20.372 C153.433,20.372 152.641,20.174 152.201,19.756 C151.893,19.47 151.761,18.898 151.717,18.084 C154.379,16.368 155.875,15.488 156.183,15.466 C156.337,15.466 156.315,15.114 156.139,14.41 C155.919,13.728 155.699,13.53 155.523,13.86 C155.347,14.19 154.731,14.74 153.697,15.51 C152.773,16.148 152.135,16.5 151.761,16.522 C151.805,15.796 151.981,15.114 152.289,14.454 C152.597,14.08 152.443,13.816 151.783,13.684 C151.123,13.574 150.837,13.684 150.859,14.014 C150.947,14.454 150.881,15.378 150.727,16.808 C150.507,18.26 150.617,19.36 151.035,20.13 C151.739,21.406 152.201,22 152.421,22 C152.619,22 152.883,22 153.235,22.022 Z M174.398,9.306 C174.442,9.438 174.574,9.46 174.772,9.416 C174.948,9.372 175.212,9.35 175.52,9.328 C175.784,9.306 175.982,9.196 176.07,8.998 C176.114,8.822 176.114,8.69 176.07,8.646 C175.894,8.514 175.718,8.36 175.52,8.228 C175.3,8.096 175.102,7.898 174.926,7.7 C174.838,7.612 174.772,7.524 174.728,7.48 C175.19,7.37 175.85,7.238 176.708,7.084 C177.566,7.216 178.006,7.128 177.962,6.864 C177.918,6.666 177.918,6.314 177.962,5.896 C178.006,5.456 177.434,5.456 176.224,5.896 C175.19,6.138 174.464,6.336 173.98,6.468 C174.354,5.94 174.728,5.456 175.124,5.06 C175.388,4.906 175.432,4.73 175.256,4.576 C175.036,4.444 174.794,4.246 174.508,4.048 C174.2,3.828 173.98,3.85 173.892,4.092 C172.99,5.742 172.154,7.15 171.384,8.36 C171.01,8.932 171.098,9.042 171.758,8.69 C171.934,8.602 172.242,8.36 172.682,7.986 C172.792,7.854 172.902,7.744 173.078,7.59 C173.276,7.898 173.518,7.964 173.76,7.766 C173.76,7.766 173.782,7.744 173.87,7.7 C173.848,7.766 173.848,7.854 173.848,7.942 C173.804,8.338 174.002,8.778 174.398,9.306 Z M163.772,10.516 C163.486,10.89 163.596,10.978 164.058,10.802 C164.696,10.538 165.246,10.274 165.708,10.01 C166.148,9.768 166.412,9.482 166.434,9.13 C166.434,8.8 166.544,8.514 166.72,8.25 C166.72,8.184 166.786,8.096 166.874,8.008 C167.072,8.294 167.314,8.404 167.556,8.338 C167.666,8.316 167.798,8.272 167.974,8.228 C167.864,8.36 167.798,8.514 167.754,8.712 C167.666,9.042 167.732,9.438 167.952,9.9 C167.996,10.032 168.15,10.098 168.348,10.098 C168.546,10.098 168.832,10.098 169.162,10.12 C169.492,10.164 169.734,10.076 169.866,9.878 C169.954,9.702 169.976,9.57 169.932,9.482 C169.778,9.35 169.624,9.218 169.448,9.064 C169.228,8.932 169.096,8.734 168.964,8.536 C168.81,8.316 168.7,8.162 168.612,8.118 L168.612,8.118 L168.59,8.096 C169.536,7.854 170.328,7.612 170.988,7.326 C171.098,7.282 171.164,7.062 171.12,6.732 C171.076,6.424 170.988,6.248 170.856,6.248 C169.888,6.468 169.074,6.666 168.414,6.864 C168.084,6.952 167.798,7.018 167.578,7.04 C167.578,6.996 167.622,6.952 167.71,6.886 C168.194,6.27 168.612,5.808 169.008,5.478 C169.294,5.346 169.162,5.104 168.612,4.774 C168.018,4.444 167.666,4.378 167.578,4.576 C167.468,4.774 167.38,4.972 167.314,5.148 C166.676,6.534 166.016,7.678 165.334,8.602 C164.674,9.372 164.168,9.988 163.772,10.516 Z M168.546,22.836 C168.964,22.836 169.14,22.682 169.096,22.374 C169.074,22.352 169.074,22.308 169.074,22.264 C169.206,22.22 169.426,22.154 169.69,22.088 C170.834,21.846 172.088,21.648 173.474,21.538 C173.936,21.45 174.354,21.384 174.662,21.384 C174.926,21.406 175.08,21.34 175.08,21.208 C174.904,20.306 174.97,19.712 175.234,19.448 C175.454,19.206 175.784,18.832 176.224,18.37 C176.664,18.018 176.334,17.688 175.168,17.314 C174.618,17.16 173.98,17.094 173.298,17.138 C172.616,17.182 171.164,17.468 169.03,17.974 C169.008,17.6 169.03,17.204 169.074,16.874 C169.228,16.852 169.536,16.764 169.932,16.632 C170.878,16.346 171.868,16.148 172.924,16.06 C173.628,16.104 173.936,15.928 173.848,15.488 C174.112,14.388 174.486,13.684 174.948,13.376 C174.926,13.376 174.926,13.354 174.97,13.354 C176.136,13.794 177.082,14.036 177.808,14.08 C178.578,14.124 179.172,14.19 179.546,14.3 C179.92,14.432 180.008,14.168 179.832,13.486 C178.688,11.352 177.918,10.164 177.478,9.988 C177.016,9.812 176.4,9.724 175.652,9.746 C174.244,9.812 173.1,9.922 172.198,10.076 C172.352,9.614 172.396,9.35 172.308,9.306 C171.824,9.086 171.252,8.91 170.614,8.8 C170.328,8.756 170.262,8.822 170.394,9.02 C170.526,9.306 170.724,9.68 171.01,10.186 C171.01,10.23 171.01,10.274 171.054,10.318 C170.9,10.384 170.746,10.428 170.658,10.472 C169.58,10.846 168.766,11.154 168.172,11.374 C167.534,11.594 167.05,11.748 166.698,11.814 C166.478,11.814 166.456,11.99 166.632,12.342 C166.742,12.672 166.874,12.804 167.05,12.694 C168.04,12.144 169.162,11.77 170.35,11.616 C171.538,11.484 172.594,11.308 173.54,11.066 C174.442,10.846 175.256,10.692 175.938,10.604 C176.576,10.538 177.082,10.648 177.456,10.956 C177.764,11.946 177.478,12.54 176.62,12.804 C176.048,12.98 175.564,13.068 175.168,13.068 C175.124,12.98 175.036,12.87 174.86,12.782 C174.464,12.584 174.068,12.386 173.694,12.232 C173.21,12.078 172.22,12.21 170.724,12.628 C170.086,12.848 169.514,12.98 169.052,13.068 L169.052,13.068 L168.942,13.068 C168.678,12.98 168.502,12.958 168.458,12.98 C168.086933,13.1413333 167.881502,14.8407111 167.867735,18.0954856 L167.86735,18.704406 C167.870247,19.7478519 167.890889,20.9342222 167.93,22.264 C167.908,22.638 168.128,22.836 168.546,22.836 Z M165.378,15.84 C165.664,15.906 165.774,15.642 165.686,15.092 C165.62,14.41 165.752,13.508 166.06,12.386 C166.082,12.32 166.082,12.254 166.038,12.21 C165.95,12.166 165.862,12.188 165.818,12.276 C165.048,13.024 164.432,13.706 163.948,14.344 C163.86,14.432 163.75,14.52 163.662,14.586 C163.552,14.674 163.684,14.894 164.168,15.224 C164.608,15.598 165.026,15.796 165.378,15.84 Z M169.162,15.818 C169.272,14.74 169.558,14.08 169.998,13.86 C169.998,13.86 170.02,13.816 170.064,13.772 C170.064,13.772 170.086,13.75 170.13,13.75 C171.604,13.31 172.462,13.2 172.726,13.398 C172.814,13.53 172.792,13.772 172.66,14.124 C172.506,14.476 172.396,14.718 172.308,14.828 C172.22,14.916 172.066,14.982 171.868,15.026 C171.582,15.07 171.23,15.136 170.856,15.246 C170.482,15.378 169.932,15.554 169.162,15.818 Z M169.184,20.922 L169.008,20.922 C168.964,20.482 168.964,19.932 169.008,19.316 C169.184,19.228 169.47,19.074 169.866,18.832 C170.108,18.744 170.68,18.546 171.538,18.282 C172.352,18.018 172.968,18.062 173.364,18.414 C173.496,18.546 173.496,18.832 173.364,19.294 C173.21,19.756 173.012,20.042 172.77,20.174 C172.088,20.482 170.922,20.702 169.184,20.922 L169.184,20.922 Z M188.983,20.988 C189.335,21.648 189.599,21.912 189.819,21.78 C191.183,21.406 193.119,21.12 195.627,20.966 C197.761,20.834 199.631,21.01 201.193,21.472 C201.479,21.648 201.655,21.494 201.699,20.966 C201.743,20.482 201.677,20.152 201.501,20.02 C201.303,19.888 201.193,19.712 201.105,19.448 C200.995,19.184 200.885,19.052 200.753,19.096 C200.533,19.206 199.939,19.25 198.949,19.25 C197.915,19.272 196.859,19.338 195.781,19.448 C195.715,19.206 195.671,18.876 195.671,18.502 C195.671,17.886 195.671,17.314 195.715,16.808 C196.001,16.764 196.309,16.698 196.661,16.61 C197.431,16.412 198.003,16.368 198.399,16.5 C198.839,16.676 198.927,16.412 198.619,15.73 C198.311,15.048 197.981,14.762 197.629,14.894 C196.991,15.07 196.375,15.18 195.759,15.29 C195.759,14.212 195.781,13.354 195.825,12.694 C196.089,12.606 196.529,12.76 197.123,13.156 C197.695,13.618 198.113,13.882 198.333,13.97 C198.421,14.058 198.553,13.838 198.773,13.354 C199.345,11.946 199.741,10.758 200.005,9.79 C200.247,8.844 200.577,8.052 201.017,7.436 C201.325,6.864 200.665,6.336 199.037,5.808 C198.399,5.544 196.969,5.588 194.791,5.94 C193.449,6.094 192.415,6.248 191.645,6.424 C191.161,6.6 190.853,6.688 190.677,6.688 C190.435,6.732 190.413,6.908 190.589,7.304 C190.853,9.79 191.293,11.704 191.997,13.09 C192.085,13.508 192.239,13.684 192.547,13.596 C192.855,13.376 193.449,13.178 194.395,12.958 L194.395,12.958 L194.395,15.532 C193.427,15.664 192.525,15.752 191.711,15.774 C191.447,15.774 191.381,16.082 191.513,16.742 C191.601,17.38 191.799,17.622 192.085,17.424 C192.371,17.204 193.009,17.072 193.999,17.006 C194.131,17.006 194.263,16.984 194.395,16.984 L194.395,16.984 L194.395,18.722 C194.395,19.118 194.351,19.426 194.263,19.624 C192.503,19.866 190.963,20.13 189.621,20.394 C188.851,20.152 188.631,20.35 188.983,20.988 Z M197.519,12.1 C197.277,12.276 197.123,12.32 197.035,12.232 C196.925,12.166 196.859,11.99 196.859,11.726 C196.815,11.506 196.683,11.44 196.485,11.506 C196.265,11.528 196.067,11.55 195.891,11.572 C195.913,11.088 195.935,10.516 195.935,9.9 C196.265,9.856 196.639,9.79 197.013,9.746 C197.189,9.768 197.277,9.548 197.277,9.064 C197.233,8.602 197.035,8.382 196.727,8.47 L196.727,8.47 L195.935,8.602 C195.935,8.184 195.957,7.766 195.957,7.304 C195.913,7.128 195.935,6.93 196.023,6.776 C197.321,6.622 198.113,6.688 198.377,6.974 C198.641,7.172 198.641,7.986 198.399,9.46 C198.091,10.912 197.805,11.792 197.519,12.1 Z M183.725,19.206 C184.099,19.712 184.451,19.822 184.737,19.536 C185.089,19.228 185.771,18.788 186.805,18.238 C187.817,17.688 188.851,16.962 189.929,16.082 C190.105,15.994 190.215,15.818 190.215,15.598 C190.193,15.4 190.149,15.312 190.061,15.334 C189.687,15.422 189.005,15.708 187.971,16.17 C187.685,15.928 187.597,14.96 187.685,13.288 C188.169,13.134 188.609,12.958 189.005,12.782 C189.357,12.65 189.533,12.43 189.489,12.144 C189.445,11.836 189.423,11.572 189.423,11.418 C189.379,11.242 189.005,11.308 188.279,11.572 C188.103,11.616 187.949,11.638 187.817,11.682 C187.905,10.318 188.015,9.394 188.147,8.954 C188.477,8.844 188.851,8.712 189.203,8.602 C189.621,8.492 189.819,8.25 189.819,7.876 C189.797,7.546 189.797,7.26 189.797,7.04 C189.753,6.864 189.313,6.886 188.433,7.15 C185.749,7.722 184.363,7.964 184.231,7.92 C183.967,7.832 183.989,8.228 184.341,9.064 C184.649,9.922 184.869,10.208 185.045,9.944 C185.221,9.768 185.639,9.592 186.277,9.416 C186.409,9.768 186.519,10.626 186.563,12.012 C185.397,12.32 184.781,12.43 184.715,12.43 C184.495,12.386 184.561,12.716 184.847,13.398 C185.133,14.124 185.353,14.344 185.529,14.146 C185.617,13.97 185.947,13.794 186.563,13.618 C186.519,15.026 186.409,16.104 186.233,16.94 C185.331,17.292 184.473,17.622 183.659,17.886 C183.329,17.974 183.153,18.084 183.153,18.216 C183.087,18.37 183.285,18.7 183.725,19.206 Z M193.845,12.034 C193.053,12.276 192.657,12.298 192.569,12.122 C192.173,10.516 192.173,9.064 192.569,7.766 C192.613,7.656 192.855,7.48 193.317,7.304 C193.493,7.238 193.801,7.15 194.175,7.062 C194.263,7.216 194.329,7.414 194.373,7.678 C194.373,7.832 194.395,8.25 194.395,8.91 L194.395,8.91 L193.229,9.174 C192.943,9.218 192.855,9.46 192.987,9.9 C193.053,10.384 193.229,10.516 193.449,10.406 C193.735,10.362 194.043,10.274 194.395,10.186 L194.395,10.186 L194.395,11.858 C194.175,11.946 193.999,11.99 193.845,12.034 Z M212.808,23.474 C213.16,23.54 213.556,23.54 213.952,23.474 C214.26,23.452 214.37,23.342 214.282,23.122 C214.15,22.924 214.084,22.528 214.084,22 C214.172,18.59 214.282,16.06 214.37,14.476 C217.362,14.19 219.958,14.3 222.202,14.872 C222.488,15.092 222.686,14.894 222.73,14.322 C222.752,13.794 222.664,13.442 222.488,13.31 C222.29,13.222 222.158,13.002 222.07,12.694 C221.938,12.43 221.784,12.32 221.652,12.364 C221.388,12.496 220.508,12.584 219.056,12.628 C217.604,12.694 216.042,12.826 214.458,13.024 C214.436,12.914 214.436,12.804 214.436,12.694 C214.678,12.606 215.03,12.43 215.514,12.188 C216.064,11.88 216.702,11.418 217.34,10.802 C217.978,10.23 218.594,9.724 219.144,9.35 C219.496,9.218 219.584,9.042 219.408,8.822 C219.21,8.646 218.99,8.382 218.726,8.074 C218.462,7.766 218.242,7.766 218.066,7.986 C216.79,9.46 215.58,10.714 214.458,11.792 C214.48,10.538 214.502,9.042 214.502,7.282 L214.502,7.194 C215.404,6.842 216.394,6.512 217.516,6.138 C217.736,6.094 217.802,5.874 217.802,5.434 C217.78,5.016 217.67,4.818 217.406,4.818 C216.702,4.862 215.734,5.016 214.48,5.302 C213.226,5.632 211.796,5.786 210.168,5.786 C209.53,5.698 209.332,5.83 209.486,6.204 C209.64,6.6 209.75,6.996 209.794,7.414 C209.816,7.81 209.992,7.942 210.344,7.788 C211.136,7.502 211.73,7.436 212.17,7.612 C212.28,7.7 212.522,7.722 212.83,7.678 C212.83,7.92 212.852,8.602 212.896,9.658 C211.554,10.01 210.52,10.34 209.794,10.626 C208.958,10.934 208.408,11.088 208.144,11.066 C207.946,11.11 207.946,11.264 208.166,11.55 C208.342,11.858 208.562,12.21 208.826,12.584 C209.068,13.002 209.288,13.002 209.464,12.606 C209.97,12.232 210.63,11.77 211.444,11.308 C212.016,10.956 212.5,10.582 212.896,10.23 C212.874,11.044 212.874,12.056 212.918,13.266 C210.08,13.684 207.638,14.146 205.57,14.586 C204.734,14.366 204.514,14.586 204.888,15.224 C205.284,15.928 205.592,16.17 205.812,16.038 C207.528,15.488 209.882,15.004 212.94,14.608 C212.94,16.676 212.962,19.206 212.962,22.176 C212.962,22.704 212.874,23.056 212.698,23.232 C212.5,23.386 212.544,23.474 212.808,23.474 Z M227.613,13.75 C227.943,14.52 228.207,14.85 228.427,14.718 C229.021,14.498 230.033,14.19 231.463,13.816 C232.827,13.442 234.697,13.112 237.007,12.804 C237.051,12.782 237.139,12.408 237.227,11.704 C237.271,11.022 237.711,10.56 238.525,10.384 C238.877,10.296 239.317,10.384 239.823,10.626 C240.307,10.89 240.549,11.352 240.549,11.99 C240.329,12.452 239.669,12.694 238.503,12.716 C237.953,12.672 237.953,12.848 238.525,13.222 C239.449,13.992 240.417,14.454 241.407,14.63 C241.693,14.63 241.847,14.3 241.847,13.684 C241.803,12.562 241.539,11.638 241.011,10.912 C240.505,10.186 239.801,9.768 238.943,9.658 C238.063,9.68 237.447,9.922 237.095,10.406 C236.699,10.868 236.457,11.11 236.369,11.132 C234.653,11.44 233.399,11.66 232.629,11.814 C231.815,11.968 231.419,11.99 231.375,11.88 C231.331,11.55 231.925,10.626 233.179,9.13 C234.367,7.678 235.379,6.688 236.149,6.204 C236.457,6.028 236.259,5.698 235.533,5.148 C234.763,4.642 234.345,4.466 234.345,4.686 C233.707,6.138 232.101,8.47 229.527,11.682 C229.175,12.188 228.889,12.452 228.691,12.518 C228.163,12.672 227.789,12.716 227.525,12.672 C227.217,12.628 227.261,12.98 227.613,13.75 Z M231.947,22.11 C231.947,22.286 232.057,22.33 232.277,22.242 C233.553,21.648 235.445,21.472 237.909,21.692 C238.173,21.648 238.305,21.516 238.261,21.252 C238.283,20.724 238.613,19.888 239.251,18.722 C239.845,17.534 240.417,16.83 240.879,16.61 C241.231,16.302 240.549,15.818 238.833,15.136 C237.403,14.762 235.555,14.806 233.311,15.312 C231.045,15.84 229.703,16.06 229.329,16.038 C228.977,16.192 228.955,16.412 229.307,16.654 C229.505,18.326 230.231,19.866 231.507,21.34 C231.771,21.692 231.903,21.956 231.947,22.11 Z M234.257,20.174 C233.267,20.284 232.695,20.262 232.563,20.13 C231.661,19.492 231.375,18.568 231.661,17.336 C232.057,16.984 233.047,16.72 234.587,16.522 C236.105,16.324 237.029,16.5 237.337,17.028 C237.865,18.062 237.513,18.964 236.303,19.778 C235.929,19.954 235.247,20.086 234.257,20.174 Z" id="研究业务智能管理平台" fill="#DCBA68" fill-rule="nonzero"></path>
                <ellipse id="椭圆形" fill="#A00015" cx="14" cy="14.0411765" rx="13" ry="13.0382353"></ellipse>
                <path d="M14,28 C6.26800144,28 0,21.7319986 0,14 C0,6.26800144 6.26800144,0 14,0 C21.7319986,0 28,6.26800144 28,14 C28,21.7319986 21.7319986,28 14,28 Z M14,26.8539792 C19.2324435,26.8539792 23.7345963,23.7275637 25.7404593,19.2409329 C24.5500825,19.7066451 20.8657768,21.0952924 17.3153929,21.8866164 C13.2321851,22.7966918 9.42500897,22.840244 5.17628274,23.347047 C7.47847147,25.521141 10.5835881,26.8539792 14,26.8539792 Z M19.0082526,9.21779691 C18.3874202,9.14435594 17.3857194,9.38356656 17.3857194,9.38356656 C17.2957517,10.2451166 14.7076857,18.8733262 14.9594546,18.9077861 C15.2112235,18.9422461 16.9270398,18.6092501 17.3304629,18.5260136 C17.4815142,18.3586868 18.8100825,12.5714675 19.1288123,11.4782921 C19.4475422,10.3851166 19.629085,9.29123789 19.0082526,9.21779691 Z M12.2619304,10.2676713 C11.93662,9.85842124 10.7348403,10.6444205 10.7348403,10.6444205 C10.7348403,10.6444205 9.45479727,15.5641622 9.11733046,16.8683172 C8.77986365,18.1724722 8.35855759,19.2881521 8.70541801,19.3799785 C9.05227844,19.4718048 10.626437,19.5799569 10.7599569,19.4302117 C10.8934769,19.2804665 11.3178974,17.0260495 11.9555077,14.1959096 C12.593118,11.3657696 12.5872408,10.6769214 12.2619304,10.2676713 Z M14,1.14601076 C6.90094008,1.14601076 1.14601076,6.90094008 1.14601076,14 C1.14601076,15.9327234 1.57261643,17.7658342 2.33673412,19.4102691 C2.83426408,19.4987801 4.30386724,19.7455759 4.77717976,19.6612845 C5.18205956,18.741263 6.52851094,12.2520344 6.54538931,12.0358809 C6.56226767,11.8197273 6.3450592,11.0157445 4.73699318,11.804808 C4.7532587,11.4714101 4.99318263,10.247578 4.99318263,10.247578 C4.99318263,10.247578 8.27723,8.55712953 9.7050592,7.40940079 C11.1328884,6.26167205 11.3590886,5.93616075 11.7344815,6.21385002 C12.1098744,6.49153929 11.8093793,7.77484751 11.3728023,8.54969501 C10.9362253,9.32454252 11.4139433,9.1297883 12.146394,8.7255113 C12.8788446,8.3212343 16.5423538,6.00919986 17.3254395,5.22927879 C18.1085253,4.44935773 18.3577323,5.44854682 18.1994977,5.89235737 C18.041263,6.33616792 17.2818873,8.13517043 17.7574453,7.83135989 C18.2093434,7.54266954 22.0556512,5.38937208 22.8436096,4.67181557 C20.5394116,2.48660495 17.4262576,1.14601076 14,1.14601076 Z M21.0376749,18.4054539 C21.836132,18.1817151 25.6524507,17.143746 26.6042196,16.5341155 C26.7707478,15.6997003 26.8544075,14.8508703 26.8539808,14 C26.8539808,11.0399067 25.8533836,8.31349839 24.171977,6.14055974 C23.5633513,8.12833872 20.8994331,18.1431862 21.0376749,18.4054539 Z" id="形状_3" fill="#DAB866"></path>
            </g>
        </g>
    </g>
</svg>